<svg width="262" height="202" viewBox="0 0 262 202" fill="none" xmlns="http://www.w3.org/2000/svg">
<g filter="url(#filter0_d)">
<rect x="51" y="38" width="159.276" height="99.0846" rx="9.26024" fill="white"/>
</g>
<path d="M91.7548 79.6393H94.0382V81.3462H91.7548V85.167H89.6523V81.3462H82.1577V80.1141L89.5279 68.7084H91.7548V79.6393ZM84.5315 79.6393H89.6523V71.5683L89.4036 72.0204L84.5315 79.6393Z" fill="#EF4565"/>
<path d="M98.7332 83.1279C98.7332 82.8095 98.8261 82.5443 99.0118 82.3321C99.2041 82.1198 99.4892 82.0137 99.8672 82.0137C100.245 82.0137 100.53 82.1198 100.723 82.3321C100.922 82.5443 101.021 82.8095 101.021 83.1279C101.021 83.4329 100.922 83.6882 100.723 83.8938C100.53 84.0994 100.245 84.2022 99.8672 84.2022C99.4892 84.2022 99.2041 84.0994 99.0118 83.8938C98.8261 83.6882 98.7332 83.4329 98.7332 83.1279Z" fill="#0C5A88"/>
<path d="M107.567 81.4395H108.663V82.2588H107.567V84.0928H106.557V82.2588H102.96V81.6674L106.498 76.1926H107.567V81.4395ZM104.099 81.4395H106.557V77.5654L106.438 77.7824L104.099 81.4395ZM112.868 84.0928H111.859V77.4026L109.835 78.146V77.2344L112.71 76.1546H112.868V84.0928ZM120.046 81.4395H121.142V82.2588H120.046V84.0928H119.037V82.2588H115.44V81.6674L118.977 76.1926H120.046V81.4395ZM116.579 81.4395H119.037V77.5654L118.918 77.7824L116.579 81.4395ZM127.225 84.0928H122.048V83.3711L124.783 80.3326C125.188 79.8732 125.467 79.5006 125.619 79.2149C125.774 78.9255 125.852 78.6271 125.852 78.3196C125.852 77.9072 125.727 77.569 125.478 77.3049C125.228 77.0409 124.895 76.9089 124.479 76.9089C123.98 76.9089 123.591 77.0517 123.313 77.3375C123.038 77.6196 122.9 78.0139 122.9 78.5203H121.896C121.896 77.7933 122.13 77.2055 122.596 76.7569C123.067 76.3084 123.694 76.0841 124.479 76.0841C125.214 76.0841 125.794 76.2776 126.221 76.6647C126.648 77.0481 126.861 77.56 126.861 78.2002C126.861 78.9779 126.366 79.904 125.375 80.9783L123.258 83.2735H127.225V84.0928ZM131.587 84.0928H130.578V77.4026L128.554 78.146V77.2344L131.43 76.1546H131.587V84.0928ZM139.704 84.0928H134.528V83.3711L137.263 80.3326C137.668 79.8732 137.946 79.5006 138.098 79.2149C138.254 78.9255 138.332 78.6271 138.332 78.3196C138.332 77.9072 138.207 77.569 137.957 77.3049C137.708 77.0409 137.375 76.9089 136.959 76.9089C136.46 76.9089 136.071 77.0517 135.792 77.3375C135.517 77.6196 135.38 78.0139 135.38 78.5203H134.376C134.376 77.7933 134.609 77.2055 135.076 76.7569C135.546 76.3084 136.174 76.0841 136.959 76.0841C137.693 76.0841 138.274 76.2776 138.701 76.6647C139.127 77.0481 139.341 77.56 139.341 78.2002C139.341 78.9779 138.845 79.904 137.854 80.9783L135.738 83.2735H139.704V84.0928Z" fill="black"/>
<path opacity="0.2" d="M89.7469 98.6321H86.8544V106.654H85.674V98.6321H82.7877V97.6556H89.7469V98.6321ZM97.8308 102.445C97.8308 103.327 97.6825 104.098 97.3858 104.757C97.0892 105.412 96.6689 105.913 96.125 106.259C95.5812 106.605 94.9466 106.778 94.2215 106.778C93.5128 106.778 92.8844 106.605 92.3364 106.259C91.7884 105.909 91.362 105.412 91.0571 104.769C90.7563 104.122 90.6018 103.375 90.5936 102.526V101.877C90.5936 101.012 90.744 100.247 91.0447 99.5839C91.3455 98.9205 91.7699 98.4137 92.3179 98.0635C92.87 97.7092 93.5004 97.532 94.2091 97.532C94.9302 97.532 95.5647 97.7071 96.1127 98.0573C96.6648 98.4034 97.0892 98.9082 97.3858 99.5715C97.6825 100.231 97.8308 100.999 97.8308 101.877V102.445ZM96.6504 101.864C96.6504 100.797 96.4361 99.9794 96.0076 99.4108C95.5791 98.8381 94.9796 98.5518 94.2091 98.5518C93.4592 98.5518 92.868 98.8381 92.4353 99.4108C92.0068 99.9794 91.7864 100.771 91.774 101.784V102.445C91.774 103.48 91.9903 104.293 92.423 104.887C92.8597 105.476 93.4592 105.77 94.2215 105.77C94.9878 105.77 95.5812 105.492 96.0014 104.936C96.4217 104.376 96.638 103.574 96.6504 102.532V101.864ZM105.655 98.6321H102.763V106.654H101.582V98.6321H98.6961V97.6556H105.655V98.6321ZM111.465 104.306H107.695L106.848 106.654H105.624L109.061 97.6556H110.099L113.541 106.654H112.324L111.465 104.306ZM108.053 103.329H111.113L109.58 99.1204L108.053 103.329ZM115.946 105.684H120.21V106.654H114.753V97.6556H115.946V105.684ZM124.703 106.654V97.6556H127.645C128.622 97.6556 129.355 97.8575 129.845 98.2613C130.34 98.6651 130.587 99.2625 130.587 100.054C130.587 100.474 130.468 100.847 130.229 101.172C129.99 101.494 129.664 101.743 129.252 101.92C129.738 102.056 130.121 102.316 130.402 102.699C130.686 103.078 130.828 103.531 130.828 104.059C130.828 104.866 130.566 105.501 130.043 105.962C129.52 106.424 128.78 106.654 127.824 106.654H124.703ZM125.89 102.445V105.684H127.849C128.401 105.684 128.836 105.542 129.153 105.258C129.475 104.969 129.635 104.574 129.635 104.071C129.635 102.987 129.046 102.445 127.868 102.445H125.89ZM125.89 101.494H127.682C128.201 101.494 128.615 101.364 128.925 101.104C129.238 100.845 129.394 100.492 129.394 100.047C129.394 99.553 129.25 99.1945 128.962 98.972C128.673 98.7454 128.234 98.6321 127.645 98.6321H125.89V101.494ZM137.559 104.306H133.789L132.942 106.654H131.718L135.154 97.6556H136.193L139.635 106.654H138.418L137.559 104.306ZM134.147 103.329H137.206L135.674 99.1204L134.147 103.329ZM142.039 105.684H146.304V106.654H140.847V97.6556H142.039V105.684ZM152.75 104.306H148.98L148.133 106.654H146.91L150.346 97.6556H151.384L154.827 106.654H153.609L152.75 104.306ZM149.338 103.329H152.398L150.865 99.1204L149.338 103.329ZM162.954 106.654H161.761L157.231 99.7199V106.654H156.038V97.6556H157.231L161.773 104.621V97.6556H162.954V106.654ZM171.681 103.799C171.569 104.751 171.217 105.486 170.624 106.005C170.035 106.52 169.25 106.778 168.269 106.778C167.206 106.778 166.353 106.397 165.71 105.635C165.072 104.872 164.752 103.853 164.752 102.575V101.71C164.752 100.874 164.901 100.138 165.197 99.5036C165.498 98.869 165.923 98.3828 166.471 98.045C167.019 97.703 167.653 97.532 168.374 97.532C169.33 97.532 170.096 97.7998 170.673 98.3355C171.25 98.867 171.586 99.6045 171.681 100.548H170.488C170.385 99.8311 170.16 99.312 169.814 98.9906C169.472 98.6692 168.992 98.5085 168.374 98.5085C167.616 98.5085 167.021 98.7887 166.588 99.349C166.159 99.9094 165.945 100.707 165.945 101.741V102.612C165.945 103.589 166.149 104.365 166.557 104.942C166.965 105.519 167.536 105.808 168.269 105.808C168.928 105.808 169.433 105.659 169.783 105.363C170.138 105.062 170.372 104.541 170.488 103.799H171.681ZM178.393 102.495H174.493V105.684H179.023V106.654H173.306V97.6556H178.961V98.6321H174.493V101.525H178.393V102.495Z" fill="black"/>
<defs>
<filter id="filter0_d" x="0.0686646" y="0.959029" width="261.139" height="200.947" filterUnits="userSpaceOnUse" color-interpolation-filters="sRGB">
<feFlood flood-opacity="0" result="BackgroundImageFix"/>
<feColorMatrix in="SourceAlpha" type="matrix" values="0 0 0 0 0 0 0 0 0 0 0 0 0 0 0 0 0 0 127 0"/>
<feOffset dy="13.8904"/>
<feGaussianBlur stdDeviation="25.4657"/>
<feColorMatrix type="matrix" values="0 0 0 0 0 0 0 0 0 0 0 0 0 0 0 0 0 0 0.18 0"/>
<feBlend mode="normal" in2="BackgroundImageFix" result="effect1_dropShadow"/>
<feBlend mode="normal" in="SourceGraphic" in2="effect1_dropShadow" result="shape"/>
</filter>
</defs>
</svg>
