<svg width="18" height="12" viewBox="0 0 18 12" fill="none" xmlns="http://www.w3.org/2000/svg">
<path fill-rule="evenodd" clip-rule="evenodd" d="M11.0319 0.0160151L11.0705 0.00176918H11.0459L11.0319 0.0160151ZM6.2757 0.000582388C6.2757 0.000582388 4.2883 -0.0753956 2.14415 1.50827C2.14415 1.50827 0 5.24069 0 9.84211C0 9.84211 1.18846 11.9078 4.44738 11.9861C4.44738 11.9861 4.92347 11.3534 5.40424 10.7966C3.57358 10.241 2.86121 9.12981 2.86121 9.12981L3.47298 9.44559C3.59131 9.49433 3.71008 9.54391 3.82971 9.59385C5.51957 10.2992 7.37955 11.0756 10.5301 10.5568C10.5465 10.5531 10.563 10.5494 10.5795 10.5457C11.2754 10.3892 11.9725 10.2325 12.6684 9.92164C12.7961 9.85617 12.932 9.7907 13.075 9.72182C13.4506 9.5409 13.875 9.33646 14.3283 9.04671C14.3283 9.04671 13.6147 10.1579 11.708 10.7135C12.1011 11.2667 12.6532 11.9006 12.6532 11.9006C15.3243 11.8423 16.6574 10.445 17.0911 9.99037C17.1867 9.89014 17.2386 9.83573 17.2515 9.8516C17.2515 5.25731 15.0944 1.51777 15.0944 1.51777C13.1667 0.0872445 11.3653 0.023138 11.0249 0.0219509L10.8073 0.2392C13.2696 0.951494 14.4616 2.06386 14.4616 2.06386C10.8892 0.278377 7.03019 0.176281 3.49638 1.58662C2.94075 1.82762 2.62258 1.98551 2.62258 1.98551C2.62258 1.98551 3.81221 0.795977 6.43596 0.160848L6.2757 0.000582388Z" fill="#72757E"/>
<path d="M11.5684 8.41994C12.4549 8.41994 13.1768 7.69841 13.1768 6.80852C13.1768 5.92465 12.4586 5.20312 11.5684 5.20312V5.20673C10.6856 5.20673 9.96245 5.92586 9.95996 6.81574C9.95996 7.69841 10.6819 8.41994 11.5684 8.41994Z" fill="#27272D"/>
<path d="M5.82395 8.41994C6.5838 8.41994 7.20258 7.69841 7.20258 6.80852C7.20258 5.92465 6.58807 5.20312 5.82822 5.20312L5.82395 5.20673C5.06409 5.20673 4.44531 5.92586 4.44531 6.81574C4.44531 7.69841 5.06409 8.41994 5.82395 8.41994Z" fill="#27272D"/>
</svg>
