<svg width="61" height="61" viewBox="0 0 61 61" fill="none" xmlns="http://www.w3.org/2000/svg">
<path d="M52.3623 3.57422C50.4719 3.57422 48.7225 4.18621 47.2988 5.22031V0H13.7012V5.22031C12.2775 4.18621 10.5281 3.57422 8.6377 3.57422C3.87486 3.57422 0 7.44908 0 12.2119V12.8076C0 17.5704 3.87486 21.4453 8.6377 21.4453H13.7012V24.7812C13.7012 34.044 21.2373 41.5801 30.5 41.5801C39.7627 41.5801 47.2988 34.044 47.2988 24.7812V21.4453H52.3623C57.1251 21.4453 61 17.5704 61 12.8076V12.2119C61 7.44908 57.1251 3.57422 52.3623 3.57422ZM13.7012 17.8711H8.6377C5.8458 17.8711 3.57422 15.5995 3.57422 12.8076V12.2119C3.57422 9.42002 5.8458 7.14844 8.6377 7.14844C11.4296 7.14844 13.7012 9.42002 13.7012 12.2119V17.8711ZM37.1719 28.5938H32.2871V32.168H28.7129V28.5938H24.0664V38.7227H28.7129V35.1484H32.2871V38.7227H34.7891V37.8711H37.1719V28.5938ZM57.4258 12.8076C57.4258 15.5995 55.1542 17.8711 52.3623 17.8711H47.2988V12.2119C47.2988 9.42002 49.5704 7.14844 52.3623 7.14844C55.1542 7.14844 57.4258 9.42002 57.4258 12.2119V12.8076Z" fill="url(#paint0_linear)"/>
<path d="M37.1719 50.2771H36.457V44.2646C34.5717 44.8422 32.5719 45.154 30.5 45.154C28.4281 45.154 26.4283 44.8422 24.543 44.2646V50.2771H23.8281C19.9523 50.2771 16.7988 53.4306 16.7988 57.3064V60.9997H44.2012V57.3064C44.2012 53.4306 41.0477 50.2771 37.1719 50.2771Z" fill="url(#paint1_linear)"/>
<g clip-path="url(#clip0)">
<path d="M37.8173 14.7428C37.7045 13.7903 37.5034 12.8943 37.0972 12.0889C35.9141 9.74103 34.1473 8.41308 31.853 8.07424C30.5513 7.88217 29.2782 8.06585 28.0756 8.70942C26.2254 9.69938 24.9166 11.27 24.3544 13.6114C24.2565 14.0198 24.1939 14.44 24.1134 14.8636C24.0763 14.8535 24.0375 14.8465 24.0009 14.8323C23.6093 14.6796 23.2096 14.6679 22.8065 14.7442C22.3509 14.8303 21.9393 15.3615 22.0019 15.8303C22.0412 16.1261 22.1367 16.4188 22.2443 16.6928C22.3312 16.9134 22.4692 17.108 22.5928 17.3079C23.0072 17.9755 23.4281 18.6375 23.8409 19.3065C24.0025 19.5682 24.1325 19.8545 24.1265 20.1886C24.1182 20.7675 24.1346 21.3521 24.0706 21.9238C23.9818 22.7156 24.0361 23.4967 24.1211 24.2745C24.2206 25.1861 24.5834 25.9949 24.94 26.7993C24.9532 26.8287 24.9687 26.8568 24.9861 26.8831C25.0828 27.0316 25.124 27.026 25.2023 26.8661C25.2613 26.7453 25.3166 26.6181 25.3927 26.5135C25.522 26.3369 25.6865 26.329 25.816 26.5046C25.9285 26.6527 26.0227 26.8187 26.0957 26.9978C26.2178 27.3123 26.3083 27.6433 26.4209 27.9631C26.4999 28.1817 26.592 28.3942 26.6873 28.6374C26.8118 28.5155 26.9105 28.4079 27.0189 28.3157C27.2331 28.1325 27.4435 28.1834 27.5792 28.4484C27.647 28.5794 27.7086 28.7145 27.764 28.8533C27.9515 29.3305 28.121 29.8181 28.3239 30.2866C28.455 30.5902 28.63 30.8678 28.7854 31.1569L28.8397 31.129C28.8464 31.0514 28.8573 30.9745 28.8723 30.8986C28.9359 30.6447 28.9766 30.3758 29.0773 30.1438C29.3134 29.5986 29.7888 29.5061 30.1514 29.9481C30.3273 30.1622 30.4549 30.4423 30.5692 30.7132C30.8332 31.34 30.9303 32.0272 31.0453 32.7055C31.0612 32.7997 31.0793 32.8933 31.0964 32.9873L31.1491 33.004C31.1938 32.9202 31.2443 32.8385 31.2828 32.7524C31.5304 32.2025 31.7775 31.6568 32.0196 31.1072C32.166 30.7742 32.4102 30.7057 32.695 30.749C32.7807 30.7619 32.8616 30.8111 32.9471 30.8438C33.0939 30.2539 33.4022 29.7859 33.7583 29.3621C34.0261 29.0425 34.277 29.0878 34.4837 29.4678C34.5353 29.5623 34.5715 29.6688 34.6132 29.7705C34.6384 29.8326 34.6608 29.8963 34.7005 30.0015C34.805 29.709 34.9036 29.4703 34.9772 29.2187C35.0748 28.8857 35.1516 28.5446 35.239 28.2077C35.3868 27.6424 35.4992 27.0598 35.7963 26.5655C35.9458 26.3167 36.2055 26.3055 36.3738 26.5395C36.4407 26.6387 36.5003 26.7444 36.5519 26.8555C36.6307 27.0143 36.7025 27.1775 36.7835 27.3517C36.8132 27.3095 36.8325 27.2857 36.8485 27.2589C37.4891 26.1823 37.8483 24.9944 37.8609 23.6742C37.8704 22.6345 37.8799 21.5937 37.8492 20.5551C37.8316 19.9652 37.9775 19.4913 38.2906 19.0362C38.7536 18.3632 39.1883 17.6615 39.6065 16.9492C39.7641 16.6811 39.876 16.3596 39.95 16.0437C40.0876 15.4566 39.9129 15.0694 39.4297 14.8544C39.2547 14.7764 39.055 14.756 38.8652 14.7473C38.5158 14.7297 38.1649 14.7428 37.8173 14.7428Z" fill="#16161A"/>
<path d="M33.821 15.8842C34.7083 15.9052 35.2584 15.1467 35.0827 14.1875C35.0263 13.88 34.8823 13.7402 34.6326 13.835C34.2357 13.9856 33.8515 14.1813 33.4683 14.3731C33.3795 14.4176 33.3016 14.5129 33.239 14.6049C33.0417 14.8937 33.0486 15.2255 33.1438 15.5507C33.2297 15.8409 33.4623 15.8543 33.6801 15.8739C33.7373 15.8789 33.7939 15.8823 33.821 15.8842ZM28.0802 15.8842C28.1419 15.8783 28.2611 15.8736 28.3785 15.8537C28.5658 15.8219 28.707 15.714 28.7641 15.4903C28.8831 15.0175 28.7684 14.5873 28.3947 14.3634C28.0347 14.1475 27.6489 13.9843 27.2632 13.8386C26.9999 13.7388 26.8414 13.8928 26.7964 14.2149C26.6588 15.1945 27.177 15.9007 28.0802 15.8837V15.8842Z" fill="#F44163"/>
</g>
<defs>
<linearGradient id="paint0_linear" x1="30.5" y1="0" x2="30.5" y2="41.5801" gradientUnits="userSpaceOnUse">
<stop stop-color="#EF4565"/>
<stop offset="1" stop-color="#FF345A"/>
</linearGradient>
<linearGradient id="paint1_linear" x1="30.5" y1="44.2646" x2="30.5" y2="60.9997" gradientUnits="userSpaceOnUse">
<stop stop-color="#EF4565"/>
<stop offset="1" stop-color="#FF345A"/>
</linearGradient>
<clipPath id="clip0">
<rect width="18" height="25" fill="white" transform="translate(22 8)"/>
</clipPath>
</defs>
</svg>
