<svg width="60" height="62" viewBox="0 0 60 62" fill="none" xmlns="http://www.w3.org/2000/svg">
<path d="M56.0288 34.8594L30.564 49.8036C30.3908 49.9056 30.1965 49.9569 30.0024 49.9569C29.808 49.9569 29.6139 49.9059 29.4408 49.8036L3.97593 34.8594L0.00390625 37.1851L4.51317 39.8316L30.0024 54.7903L55.4904 39.8316L59.9997 37.1851L56.0288 34.8594Z" fill="url(#paint0_linear)"/>
<path d="M59.9995 29.9544L49.1137 23.5801C48.9938 23.9742 48.845 24.3562 48.7008 24.739C48.6464 24.8843 48.5988 25.0331 48.5399 25.1765C48.3877 25.5562 48.2168 25.9259 48.0414 26.2943C47.9726 26.4374 47.906 26.5819 47.8349 26.7227C47.6405 27.107 47.4354 27.4832 47.2166 27.8539C47.1667 27.9394 47.1135 28.0236 47.0622 28.108C45.5324 30.6103 43.4687 32.7683 41.0254 34.3925C38.4344 36.1153 35.4371 37.2232 32.3466 37.5918C28.9107 38.0016 25.3895 37.4898 22.2068 36.1365C19.4637 34.9686 16.996 33.1815 15.0256 30.9444C14.2486 30.0629 13.5479 29.1128 12.9376 28.108C12.8854 28.0236 12.8333 27.9392 12.7831 27.8539C12.5655 27.4841 12.359 27.1078 12.1649 26.7227C12.0937 26.5816 12.026 26.4374 11.9572 26.2943C11.7829 25.9257 11.612 25.5562 11.4587 25.1765C11.4009 25.0334 11.3533 24.8846 11.2978 24.739C11.1547 24.3548 11.006 23.9742 10.8858 23.5801L0 29.9544L29.9985 47.5596L59.9995 29.9544Z" fill="url(#paint1_linear)"/>
<path d="M12.7063 21.7439C13.1538 23.6933 13.9219 25.5127 14.9499 27.1479C14.9655 27.1723 14.98 27.1978 14.9955 27.2222C15.2565 27.633 15.5339 28.0337 15.8314 28.4267C17.8007 30.889 20.2053 32.8694 23.1226 34.1116C26.2086 35.4249 29.6689 35.8089 32.9728 35.2518C36.2033 34.7066 39.2417 33.2369 41.7026 31.0777C42.6119 30.2795 43.4409 29.3904 44.1771 28.4202C44.4701 28.034 44.7466 27.6342 45.0076 27.2236C45.0243 27.1981 45.0388 27.1715 45.0543 27.146C46.0823 25.5107 46.8505 23.6925 47.2979 21.743C47.5932 20.4608 47.764 19.1319 47.764 17.7622C47.7638 7.96842 39.7953 0 30.0019 0C20.2075 0 12.2402 7.96842 12.2402 17.7619C12.2402 19.1328 12.4111 20.4617 12.7063 21.7439ZM43.3234 17.763C43.3234 17.149 43.8206 16.6529 44.4335 16.6529C45.0464 16.6529 45.5437 17.149 45.5437 17.763C45.5437 26.333 38.5721 33.3046 30.0021 33.3046C29.3892 33.3046 28.892 32.8085 28.892 32.1944C28.892 31.5804 29.3892 31.0843 30.0021 31.0843C37.3466 31.0843 43.3234 25.1087 43.3234 17.763ZM32.2222 6.66188C32.8351 6.66188 33.3324 7.15803 33.3324 7.77206V10.1499C36.9987 0.999852 21.8009 8.08629 21.8009 10.1499C21.8009 11.4831 21.7336 29.3809 20.8011 30.1955C21.7336 31.0105 32.5993 27.531 32.5993 28.8642C34.3991 28.8642 35.2416 24.88 33.3324 25.3761V27.754C33.3324 28.368 22.2312 27.9959 32.2222 28.8642C31.6093 28.8642 31.112 28.368 31.112 27.754V25.5337H28.8917V27.754C28.8917 28.368 28.3944 28.8642 27.7815 28.8642C27.1686 28.8642 26.6713 28.368 26.6713 27.754V25.5337H25.5612H23.3414C22.7285 25.5337 22.2312 25.0375 22.2312 24.4235C22.2312 23.8095 22.7285 23.3133 23.3414 23.3133H24.4516V17.763V12.2125H23.3414C22.7285 12.2125 22.2312 11.7163 22.2312 11.1023C22.2312 10.4883 22.7285 9.99212 23.3414 9.99212H25.5617H26.6719V7.77177C26.6719 7.15775 27.1692 6.6616 27.7821 6.6616C28.395 6.6616 28.8923 7.15775 28.8923 7.77177V9.99212H31.1126V7.77177C31.112 7.15803 31.6085 6.66188 32.2222 6.66188ZM30.0019 2.22148C30.6147 2.22148 31.112 2.71763 31.112 3.33165C31.112 3.94567 30.6147 4.44182 30.0019 4.44182C22.6562 4.44182 16.6806 10.4174 16.6806 17.763C16.6806 18.3771 16.1834 18.8732 15.5705 18.8732C14.9576 18.8732 14.4603 18.3771 14.4603 17.763C14.4603 9.19278 21.4319 2.22148 30.0019 2.22148Z" fill="url(#paint2_linear)"/>
<path d="M59.9998 44.3854L56.0533 42.0752L30.5641 57.0339C30.391 57.1359 30.1966 57.1872 30.0025 57.1872C29.8081 57.1872 29.614 57.1362 29.4409 57.0339L3.95169 42.0752L0.00488281 44.3854L30.0025 61.9906L59.9998 44.3854Z" fill="url(#paint3_linear)"/>
<g clip-path="url(#clip0)">
<path d="M36.0599 13.1594C35.9596 12.3593 35.7808 11.6066 35.4198 10.9301C34.3681 8.9579 32.7976 7.84241 30.7582 7.55779C29.6012 7.39645 28.4695 7.55074 27.4005 8.09134C25.7559 8.92291 24.5926 10.2422 24.0928 12.209C24.0058 12.5521 23.9501 12.9051 23.8786 13.2608C23.8456 13.2524 23.8111 13.2465 23.7785 13.2345C23.4304 13.1063 23.0752 13.0965 22.7169 13.1606C22.3119 13.2329 21.9461 13.6791 22.0017 14.0729C22.0366 14.3214 22.1215 14.5673 22.2171 14.7974C22.2944 14.9827 22.4171 15.1461 22.5269 15.314C22.8953 15.8748 23.2694 16.4309 23.6363 16.9929C23.78 17.2127 23.8955 17.4532 23.8903 17.7338C23.8829 18.2202 23.8975 18.7112 23.8405 19.1915C23.7616 19.8565 23.8099 20.5127 23.8854 21.166C23.9738 21.9318 24.2963 22.6112 24.6133 23.2868C24.6251 23.3116 24.6388 23.3351 24.6544 23.3573C24.7403 23.482 24.7769 23.4773 24.8465 23.3429C24.899 23.2415 24.9481 23.1346 25.0158 23.0468C25.1307 22.8984 25.2769 22.8918 25.392 23.0393C25.492 23.1637 25.5757 23.3032 25.6406 23.4535C25.7492 23.7177 25.8296 23.9958 25.9297 24.2644C25.9999 24.4481 26.0818 24.6266 26.1665 24.8309C26.2771 24.7285 26.3649 24.6381 26.4612 24.5606C26.6517 24.4068 26.8387 24.4495 26.9593 24.6721C27.0195 24.7821 27.0743 24.8956 27.1235 25.0122C27.2903 25.413 27.4409 25.8226 27.6212 26.2162C27.7378 26.4712 27.8933 26.7044 28.0315 26.9472L28.0797 26.9238C28.0857 26.8586 28.0954 26.794 28.1087 26.7303C28.1652 26.517 28.2014 26.2911 28.2909 26.0962C28.5008 25.6383 28.9234 25.5605 29.2457 25.9318C29.402 26.1117 29.5155 26.347 29.617 26.5746C29.8517 27.1011 29.938 27.6783 30.0402 28.248C30.0544 28.3272 30.0705 28.4058 30.0857 28.4847L30.1325 28.4988C30.1723 28.4284 30.2171 28.3598 30.2514 28.2875C30.4715 27.8255 30.6911 27.3671 30.9063 26.9054C31.0364 26.6257 31.2536 26.5682 31.5066 26.6046C31.5828 26.6154 31.6547 26.6567 31.7307 26.6842C31.8613 26.1887 32.1353 25.7956 32.4518 25.4396C32.6899 25.1712 32.9129 25.2092 33.0966 25.5283C33.1425 25.6077 33.1747 25.6972 33.2117 25.7827C33.2341 25.8348 33.254 25.8884 33.2894 25.9767C33.3823 25.731 33.4699 25.5305 33.5352 25.3191C33.622 25.0394 33.6903 24.7529 33.768 24.4699C33.8994 23.9951 33.9993 23.5057 34.2634 23.0905C34.3963 22.8815 34.6271 22.8721 34.7767 23.0686C34.8362 23.1519 34.8892 23.2407 34.935 23.334C35.005 23.4674 35.0689 23.6045 35.1409 23.7509C35.1673 23.7154 35.1845 23.6954 35.1986 23.6729C35.7681 22.7685 36.0874 21.7707 36.0986 20.6618C36.107 19.7884 36.1155 18.9141 36.0882 18.0417C36.0726 17.5462 36.2023 17.1481 36.4805 16.7658C36.8921 16.2006 37.2785 15.6111 37.6503 15.0127C37.7903 14.7875 37.8898 14.5175 37.9556 14.2521C38.0779 13.7589 37.9226 13.4337 37.493 13.2531C37.3375 13.1876 37.16 13.1704 36.9913 13.1632C36.6807 13.1484 36.3688 13.1594 36.0599 13.1594Z" fill="#16161A"/>
<path d="M32.5078 14.119C33.2965 14.1366 33.7855 13.4995 33.6293 12.6938C33.5792 12.4355 33.4511 12.318 33.2292 12.3977C32.8764 12.5242 32.5349 12.6886 32.1942 12.8497C32.1153 12.8871 32.0461 12.9671 31.9904 13.0444C31.815 13.287 31.8212 13.5657 31.9058 13.8389C31.9822 14.0826 32.1889 14.0939 32.3825 14.1103C32.4333 14.1146 32.4837 14.1174 32.5078 14.119ZM27.4048 14.119C27.4596 14.1141 27.5657 14.1101 27.67 14.0934C27.8365 14.0667 27.962 13.976 28.0128 13.7881C28.1186 13.391 28.0166 13.0296 27.6844 12.8415C27.3644 12.6602 27.0214 12.5231 26.6786 12.4007C26.4446 12.3169 26.3037 12.4463 26.2637 12.7168C26.1414 13.5397 26.602 14.1329 27.4048 14.1186V14.119Z" fill="#F44163"/>
</g>
<defs>
<linearGradient id="paint0_linear" x1="30.0018" y1="34.8594" x2="30.0018" y2="54.7903" gradientUnits="userSpaceOnUse">
<stop stop-color="#EF4565"/>
<stop offset="1" stop-color="#FF345A"/>
</linearGradient>
<linearGradient id="paint1_linear" x1="29.9997" y1="23.5801" x2="29.9997" y2="47.5596" gradientUnits="userSpaceOnUse">
<stop stop-color="#EF4565"/>
<stop offset="1" stop-color="#FF345A"/>
</linearGradient>
<linearGradient id="paint2_linear" x1="30.0021" y1="0" x2="30.0021" y2="35.4994" gradientUnits="userSpaceOnUse">
<stop stop-color="#EF4565"/>
<stop offset="1" stop-color="#FF345A"/>
</linearGradient>
<linearGradient id="paint3_linear" x1="30.0023" y1="42.0752" x2="30.0023" y2="61.9906" gradientUnits="userSpaceOnUse">
<stop stop-color="#EF4565"/>
<stop offset="1" stop-color="#FF345A"/>
</linearGradient>
<clipPath id="clip0">
<rect width="16" height="21" fill="white" transform="translate(22 7.49609)"/>
</clipPath>
</defs>
</svg>
