<svg width="14" height="14" viewBox="0 0 14 14" fill="none" xmlns="http://www.w3.org/2000/svg">
<g clip-path="url(#clip0)">
<path d="M13.945 12.6776L12.9839 9.88051C13.4462 8.9461 13.6906 7.90452 13.6923 6.85651C13.6951 5.05177 12.9968 3.3453 11.726 2.05148C10.455 0.757436 8.76139 0.0290532 6.95711 0.000424258C6.01181 -0.0147515 5.09454 0.159428 4.22938 0.517549C3.39493 0.862955 2.64662 1.36332 2.00524 2.00472C1.36384 2.6461 0.863477 3.39441 0.518071 4.22886C0.159895 5.09402 -0.0140929 6.01176 0.000891425 6.95659C0.0294656 8.76087 0.757876 10.4545 2.05189 11.7255C3.34317 12.9938 5.04527 13.6918 6.84613 13.6918C6.84963 13.6918 6.85337 13.6918 6.8569 13.6918C7.90493 13.6902 8.94648 13.4457 9.88095 12.9834L12.678 13.9445C12.7856 13.9815 12.8958 13.9995 13.0049 13.9995C13.264 13.9995 13.516 13.8977 13.7071 13.7066C13.9786 13.4351 14.0698 13.0408 13.945 12.6776ZM6.77875 10.7484C6.54608 10.7484 6.37379 10.5583 6.36373 10.3334C6.35369 10.1093 6.56167 9.91839 6.77875 9.91839C7.01142 9.91839 7.18371 10.1086 7.19377 10.3334C7.20384 10.5575 6.99583 10.7484 6.77875 10.7484ZM7.19377 7.57842V8.898C7.19377 9.12719 7.00795 9.31302 6.77875 9.31302C6.54956 9.31302 6.36373 9.12719 6.36373 8.898V7.20528C6.36373 6.97609 6.54956 6.79026 6.77875 6.79026C7.45961 6.79026 8.01357 6.2363 8.01357 5.55544C8.01357 4.87458 7.45961 4.32063 6.77875 4.32063C6.09789 4.32063 5.54393 4.87458 5.54393 5.55544C5.54393 5.78464 5.35811 5.97047 5.12891 5.97047C4.89972 5.97047 4.71389 5.78464 4.71389 5.55544C4.71389 4.4169 5.64018 3.49058 6.77875 3.49058C7.91729 3.49058 8.84361 4.41688 8.84361 5.55544C8.84361 6.5519 8.13413 7.38578 7.19377 7.57842Z" fill="#72757E"/>
</g>
<defs>
<clipPath id="clip0">
<rect width="14" height="14" fill="white"/>
</clipPath>
</defs>
</svg>
