<svg width="60" height="70" viewBox="0 0 60 70" fill="none" xmlns="http://www.w3.org/2000/svg">
<path fill-rule="evenodd" clip-rule="evenodd" d="M10.2054 11.4128C8.87573 13.662 8.21712 16.1642 7.84768 18.824C7.50758 18.824 7.1665 18.8207 6.82486 18.8175C6.02342 18.8098 5.21891 18.802 4.41669 18.8365C3.7955 18.8607 3.14157 18.9177 2.5687 19.1355C0.986488 19.7359 0.414398 20.8172 0.864899 22.4566C1.1073 23.3388 1.47362 24.2366 1.98959 24.9853C3.35903 26.9746 4.78224 28.9341 6.2982 30.8133C7.32313 32.0843 7.80091 33.4076 7.74324 35.0549C7.64269 37.9552 7.67387 40.8618 7.70504 43.7652C7.74635 47.4517 8.92249 50.7689 11.0199 53.7754C11.0539 53.8242 11.0925 53.8694 11.1423 53.9275C11.1689 53.9586 11.1987 53.9935 11.2327 54.0346C11.3154 53.8828 11.3952 53.734 11.4737 53.5876C11.6468 53.2649 11.8136 52.9539 11.991 52.6488C12.1598 52.3386 12.3549 52.0435 12.5741 51.7667C13.1251 51.1132 13.9754 51.1444 14.4649 51.8393C15.2806 52.9968 15.671 54.3278 16.0612 55.6582C16.1363 55.9143 16.2114 56.1703 16.2895 56.4251C16.3857 56.7415 16.4781 57.0593 16.5704 57.377C16.7526 58.004 16.9348 58.6311 17.1469 59.2481C17.3105 59.7255 17.5119 60.1863 17.7315 60.6888C17.8352 60.9259 17.9429 61.1723 18.0526 61.4341C18.1004 61.3262 18.1405 61.234 18.1763 61.1518C18.2378 61.0104 18.2864 60.8989 18.3386 60.7893C18.375 60.7135 18.41 60.6368 18.4452 60.5601C18.5418 60.3489 18.6386 60.1373 18.7626 59.9438C19.4391 58.8828 20.2606 58.7563 21.1375 59.6487C22.3035 60.8322 23.3128 62.1391 23.7937 63.7864C23.8847 63.7567 23.9741 63.7221 24.0629 63.6878C24.2475 63.6164 24.4297 63.546 24.6191 63.5217C25.5513 63.4007 26.351 63.592 26.8303 64.5218C27.4859 65.7912 28.1527 67.0532 28.8223 68.3204C28.9623 68.5854 29.1024 68.8507 29.2426 69.1163C29.3277 69.2783 29.4305 69.4348 29.5334 69.5912C29.5831 69.6669 29.6329 69.7426 29.6807 69.8189L29.8529 69.7721C29.8702 69.691 29.8879 69.6101 29.9055 69.5291C29.9449 69.348 29.9844 69.1669 30.0205 68.9851C30.0576 68.7984 30.0941 68.6115 30.1307 68.4246C30.4649 66.7145 30.8001 64.9996 31.5793 63.4218C31.9534 62.6653 32.3712 61.883 32.9472 61.285C34.1342 60.0507 35.6907 60.3091 36.4639 61.8315C36.7021 62.2996 36.8377 62.8214 36.9731 63.3423C37.0252 63.5425 37.0772 63.7426 37.135 63.9394C37.1841 64.1514 37.2197 64.3662 37.2418 64.5827L37.4195 64.6608C37.5761 64.4124 37.7387 64.167 37.9014 63.9217C38.2674 63.3696 38.6334 62.8174 38.9307 62.2304C39.3611 61.3825 39.7456 60.5123 40.1301 59.642C40.3389 59.1694 40.5478 58.6968 40.7639 58.2278C40.9451 57.8403 41.147 57.463 41.3688 57.0973C41.813 56.3572 42.502 56.2151 43.2035 56.7265C43.4451 56.902 43.6723 57.0975 43.9215 57.3119C44.038 57.4122 44.1593 57.5166 44.2892 57.6251C44.4064 57.3697 44.5222 57.1265 44.6348 56.89C44.8217 56.4973 44.9999 56.123 45.1614 55.742C45.3127 55.3754 45.4518 55.0036 45.5909 54.6318C45.7907 54.0978 45.9903 53.564 46.2261 53.0462C46.465 52.5462 46.7734 52.0826 47.1419 51.6691C47.5659 51.1788 48.1045 51.2006 48.5277 51.694C48.7327 51.934 48.8914 52.2168 49.0487 52.4971C49.0828 52.5578 49.1168 52.6185 49.1512 52.6785C49.4076 53.1251 49.5425 53.1407 49.8589 52.7261C49.916 52.6526 49.9666 52.5743 50.0101 52.4919L50.0572 52.4014C51.2095 50.1851 52.3699 47.9531 52.6913 45.4414C52.9696 43.2695 53.1473 41.0882 52.8566 38.8772C52.6962 37.6564 52.6899 36.4146 52.6837 35.1748C52.6817 34.7933 52.6798 34.4119 52.6734 34.0314C52.6539 33.0984 53.0795 32.299 53.6087 31.5682C54.3611 30.5282 55.1217 29.4941 55.8824 28.4601C56.488 27.6367 57.0937 26.8134 57.6952 25.987C57.7797 25.8703 57.8664 25.7542 57.9531 25.638C58.2814 25.1984 58.6112 24.7566 58.8362 24.2694C59.1885 23.5043 59.5011 22.6869 59.6297 21.861C59.8347 20.5517 58.487 19.0684 56.9952 18.8279C55.6757 18.6148 54.3671 18.6476 53.0849 19.0738C53.002 19.1014 52.9156 19.1192 52.8301 19.1368C52.7919 19.1447 52.7538 19.1526 52.7163 19.1613C52.6329 18.7872 52.5555 18.414 52.4783 18.0426C52.3116 17.2395 52.1465 16.4444 51.9275 15.6645C50.0865 9.1261 45.8013 4.74009 39.7437 1.97562C35.8061 0.178434 31.6378 -0.33449 27.3759 0.201855C19.8639 1.14807 14.0791 4.85642 10.2054 11.4128ZM16.814 17.2807C16.2388 19.9593 18.04 22.0773 20.9449 22.0188C20.9678 22.0174 20.9971 22.0157 21.0312 22.0138C21.1294 22.0082 21.2674 22.0003 21.4063 21.9899C21.4242 21.9885 21.4422 21.9872 21.4601 21.9858C22.1574 21.9329 22.8881 21.8774 23.1624 21.0874C23.4741 20.1794 23.4967 19.2527 22.8506 18.4463C22.6456 18.1894 22.3907 17.9232 22.1 17.799C22.0213 17.7654 21.9425 17.7318 21.8638 17.6981C20.6871 17.1954 19.5057 16.6906 18.2879 16.2962C17.4703 16.0315 16.9987 16.4219 16.814 17.2807ZM39.5501 22.0059C39.6242 22.0105 39.689 22.0145 39.7413 22.0188V22.0172C42.6984 22.0648 44.3951 20.0928 43.9446 17.3572C43.7973 16.4578 43.2782 16.0276 42.4162 16.3063C41.1536 16.7131 39.8901 17.169 38.7117 17.7717C37.488 18.3971 37.1123 19.5986 37.502 20.9188C37.6891 21.5433 38.1513 21.8447 38.7647 21.9337C39.0495 21.9748 39.3378 21.9927 39.5501 22.0059Z" fill="white"/>
</svg>
