<svg width="15" height="15" viewBox="0 0 15 15" fill="none" xmlns="http://www.w3.org/2000/svg">
<path d="M12.4219 0H4.04297C2.97677 0 2.10938 0.867393 2.10938 1.93359V12.8906C2.10938 14.0537 3.05563 15 4.21875 15H12.4219C12.6808 15 12.8906 14.7901 12.8906 14.5312C12.8906 14.2724 12.6808 14.0625 12.4219 14.0625H4.21875C3.57258 14.0625 3.04688 13.5368 3.04688 12.8906C3.04688 12.2445 3.57258 11.7188 4.21875 11.7188H12.4219C12.6808 11.7188 12.8906 11.5089 12.8906 11.25V0.46875C12.8906 0.209883 12.6808 0 12.4219 0ZM3.04688 10.8818V1.93359C3.04688 1.38346 3.49283 0.9375 4.04297 0.9375H4.07227C4.15315 0.9375 4.21875 1.0031 4.21875 1.08398V10.6396C4.21875 10.7162 4.15978 10.7807 4.08334 10.7856C3.78788 10.8044 3.5088 10.8844 3.25857 11.0129C3.16181 11.0626 3.04688 10.9905 3.04688 10.8818Z" fill="#72757E"/>
<path d="M12.4219 12.4219H4.21875C3.95985 12.4219 3.75 12.6318 3.75 12.8906C3.75 13.1495 3.95985 13.3594 4.21875 13.3594H12.4219C12.6808 13.3594 12.8906 13.1495 12.8906 12.8906C12.8906 12.6318 12.6808 12.4219 12.4219 12.4219Z" fill="#72757E"/>
</svg>
