<svg width="13" height="16" viewBox="0 0 13 16" fill="none" xmlns="http://www.w3.org/2000/svg">
<path d="M6.14092 15.9776H11.318C11.851 15.9776 12.2837 15.5449 12.2837 15.0119V2.45441V1.44127C12.2837 0.908225 11.851 0.475586 11.318 0.475586H6.14092H4.41949V0.795045C4.42313 0.827904 4.42497 0.862588 4.42497 0.897272V3.00205V3.5424C4.42497 4.29267 3.81526 4.90238 3.06498 4.90238H2.52464H0.419861C0.392479 4.90238 0.363271 4.90055 0.335889 4.89873H0V15.0119C0 15.5449 0.432639 15.9776 0.96568 15.9776H2.02446H6.14092ZM6.33625 12.6954H2.96093C2.70902 12.6954 2.50456 12.4909 2.50456 12.239C2.50456 11.9871 2.70902 11.7826 2.96093 11.7826H6.33807C6.58999 11.7826 6.79445 11.9871 6.79445 12.239C6.79445 12.4909 6.58817 12.6954 6.33625 12.6954ZM9.71339 10.3661H2.96093C2.70902 10.3661 2.50456 10.1616 2.50456 9.9097C2.50456 9.65776 2.70902 9.45333 2.96093 9.45333H9.71339C9.96531 9.45333 10.1698 9.65776 10.1698 9.9097C10.1698 10.1616 9.96531 10.3661 9.71339 10.3661ZM2.96093 6.97978H9.71339C9.96531 6.97978 10.1698 7.18423 10.1698 7.43615C10.1698 7.68807 9.96531 7.89252 9.71339 7.89252H2.96093C2.70902 7.89252 2.50456 7.68807 2.50456 7.43615C2.50456 7.18423 2.70902 6.97978 2.96093 6.97978Z" fill="#72757E"/>
<path d="M0.420764 4.35527H3.06589C3.06771 4.35527 3.07136 4.35527 3.07319 4.35527C3.51496 4.35162 3.87275 3.99382 3.8764 3.55206C3.8764 3.55023 3.8764 3.54658 3.8764 3.54475V0.897805C3.8764 0.653191 3.6756 0.490723 3.46751 0.490723C3.36711 0.490723 3.26671 0.527232 3.18274 0.611204L0.132338 3.66159C-0.12323 3.91715 0.0574931 4.35527 0.420764 4.35527Z" fill="#72757E"/>
</svg>
