<svg width="62" height="62" viewBox="0 0 62 62" fill="none" xmlns="http://www.w3.org/2000/svg">
<path d="M60.2116 23.2481C61.1993 23.2481 62 22.4473 62 21.4596C62 20.472 61.1992 19.6712 60.2116 19.6712H56.6347V16.0961H60.2116C61.1993 16.0961 62 15.2954 62 14.3077C62 13.3201 61.1992 12.5193 60.2116 12.5193H54.8461C53.8584 12.5193 53.0577 13.3201 53.0577 14.3077V19.6712H49.4807V17.8847C49.4807 14.9263 47.0739 12.5193 44.1153 12.5193H42.3288V8.94229H47.6923C48.6801 8.94229 49.4807 8.1415 49.4807 7.15386V1.78843C49.4807 0.800793 48.6801 0 47.6923 0C46.7045 0 45.9039 0.800793 45.9039 1.78843V5.3653H42.3288V1.78843C42.3288 0.800793 41.5281 0 40.5404 0C39.5526 0 38.7519 0.800793 38.7519 1.78843V12.5192H32.7884V1.78843C32.7884 0.800793 31.9878 0 31 0C30.0122 0 29.2116 0.800793 29.2116 1.78843V12.5192H23.2481V1.78843C23.2481 0.800793 22.4474 0 21.4596 0C20.4719 0 19.6712 0.800793 19.6712 1.78843V5.3653H16.0961V1.78843C16.0961 0.800793 15.2954 0 14.3077 0C13.3201 0 12.5193 0.800793 12.5193 1.78843V7.15386C12.5193 8.14162 13.3201 8.94229 14.3077 8.94229H19.6712V12.5193H17.8847C14.9263 12.5193 12.5193 14.9261 12.5193 17.8847V19.6712H8.94229V14.3077C8.94229 13.3199 8.1415 12.5193 7.15386 12.5193H1.78843C0.800793 12.5193 0 13.3199 0 14.3077C0 15.2955 0.800793 16.0961 1.78843 16.0961H5.3653V19.6712H1.78843C0.800793 19.6712 0 20.4719 0 21.4596C0 22.4474 0.800793 23.2481 1.78843 23.2481H12.5192V29.2116H1.78843C0.800793 29.2116 0 30.0122 0 31C0 31.9878 0.800793 32.7884 1.78843 32.7884H12.5192V38.7519H1.78843C0.800793 38.7519 0 39.5526 0 40.5404C0 41.5281 0.800793 42.3288 1.78843 42.3288H5.3653V45.9039H1.78843C0.800793 45.9039 0 46.7047 0 47.6923C0 48.6799 0.800793 49.4807 1.78843 49.4807H7.15386C8.14162 49.4807 8.94229 48.6799 8.94229 47.6923V42.3288H12.5193V44.1153C12.5193 47.0737 14.9261 49.4807 17.8847 49.4807H19.6712V53.0577H14.3077C13.3199 53.0577 12.5193 53.8585 12.5193 54.8461V60.2116C12.5193 61.1993 13.3201 62 14.3077 62C15.2954 62 16.0961 61.1992 16.0961 60.2116V56.6347H19.6712V60.2116C19.6712 61.1993 20.472 62 21.4596 62C22.4473 62 23.2481 61.1992 23.2481 60.2116V49.4808H29.2116V60.2116C29.2116 61.1993 30.0124 62 31 62C31.9876 62 32.7884 61.1992 32.7884 60.2116V49.4808H38.7519V60.2116C38.7519 61.1993 39.5527 62 40.5404 62C41.528 62 42.3288 61.1992 42.3288 60.2116V56.6347H45.9039V60.2116C45.9039 61.1993 46.7047 62 47.6923 62C48.6799 62 49.4807 61.1992 49.4807 60.2116V54.8461C49.4807 53.8584 48.6799 53.0577 47.6923 53.0577H42.3288V49.4807H44.1153C47.0737 49.4807 49.4807 47.0739 49.4807 44.1153V42.3288H53.0577V47.6923C53.0577 48.6801 53.8585 49.4807 54.8461 49.4807H60.2116C61.1993 49.4807 62 48.6799 62 47.6923C62 46.7047 61.1992 45.9039 60.2116 45.9039H56.6347V42.3288H60.2116C61.1993 42.3288 62 41.528 62 40.5404C62 39.5527 61.1992 38.7519 60.2116 38.7519H49.4808V32.7884H60.2116C61.1993 32.7884 62 31.9876 62 31C62 30.0124 61.1992 29.2116 60.2116 29.2116H49.4808V23.2481H60.2116ZM20.2683 43.8183C19.1178 43.8183 18.1817 42.8822 18.1817 41.7317C18.1817 40.5813 19.1178 39.6451 20.2683 39.6451C21.4188 39.6451 22.3549 40.5812 22.3549 41.7317C22.3548 42.8822 21.4188 43.8183 20.2683 43.8183ZM20.2683 22.3548C19.1178 22.3548 18.1817 21.4187 18.1817 20.2682C18.1817 19.1177 19.1178 18.1816 20.2683 18.1816C21.4188 18.1816 22.3549 19.1177 22.3549 20.2682C22.3548 21.4187 21.4188 22.3548 20.2683 22.3548ZM25.4501 25.812C25.4501 26.6386 25.1992 27.4076 24.7701 28.0476C25.1994 28.6875 25.4501 29.4565 25.4501 30.2833V31.4011C18.2063 49.6984 35.4543 38.3775 33.2355 38.3775H32.7884V39.9424C32.7884 40.9302 31.9876 41.7308 31 41.7308C30.0124 41.7308 29.2116 40.93 29.2116 39.9424V38.3775H26.5289C25.5411 38.3775 24.7404 37.5767 24.7404 36.5891L25.7246 45.0937C25.7246 44.1059 26.5253 43.3053 27.513 43.3053H30.1957V41.7404C30.1957 40.7526 29.2081 44.1153 30.1957 44.1153C32.1675 63.7978 32.7884 21.0702 32.7884 22.0578L25.7246 35.9206L33.7726 43.3053L33.2355 23.6227C35.4543 23.6227 25.4501 22.4755 25.4501 24.6944V25.812ZM41.7317 43.8183C40.5813 43.8183 39.6451 42.8822 39.6451 41.7317C39.6451 40.5813 40.5812 39.6451 41.7317 39.6451C42.8822 39.6451 43.8183 40.5812 43.8183 41.7317C43.8183 42.8822 42.8822 43.8183 41.7317 43.8183ZM41.7317 22.3548C40.5813 22.3548 39.6451 21.4187 39.6451 20.2682C39.6451 19.1177 40.5812 18.1816 41.7317 18.1816C42.8822 18.1816 43.8183 19.1177 43.8183 20.2682C43.8183 21.4187 42.8822 22.3548 41.7317 22.3548Z" fill="url(#paint0_linear)"/>
<g clip-path="url(#clip0)">
<path d="M37.1583 27.678C37.0645 26.9656 36.8973 26.2954 36.5598 25.693C35.5766 23.937 34.1083 22.9437 32.2016 22.6903C31.1199 22.5466 30.0619 22.684 29.0625 23.1654C27.5249 23.9058 26.4373 25.0805 25.97 26.8317C25.8887 27.1372 25.8366 27.4515 25.7698 27.7683C25.7389 27.7608 25.7067 27.7555 25.6762 27.7449C25.3508 27.6307 25.0186 27.6219 24.6837 27.679C24.305 27.7434 23.963 28.1407 24.015 28.4914C24.0477 28.7126 24.127 28.9315 24.2164 29.1364C24.2886 29.3014 24.4034 29.447 24.506 29.5965C24.8505 30.0958 25.2002 30.5909 25.5433 31.0913C25.6776 31.287 25.7856 31.5012 25.7807 31.751C25.7737 32.1841 25.7874 32.6213 25.7342 33.0489C25.6604 33.6411 25.7055 34.2253 25.7761 34.807C25.8588 35.4889 26.1603 36.0938 26.4566 36.6954C26.4677 36.7175 26.4805 36.7385 26.495 36.7582C26.5753 36.8692 26.6096 36.865 26.6747 36.7454C26.7237 36.6551 26.7696 36.5599 26.8329 36.4817C26.9403 36.3496 27.077 36.3437 27.1847 36.475C27.2782 36.5858 27.3565 36.71 27.4171 36.8439C27.5186 37.0791 27.5938 37.3267 27.6873 37.5659C27.753 37.7294 27.8296 37.8883 27.9087 38.0703C28.0122 37.9791 28.0943 37.8986 28.1843 37.8296C28.3623 37.6926 28.5372 37.7307 28.65 37.9289C28.7063 38.0268 28.7575 38.1279 28.8035 38.2317C28.9594 38.5886 29.1002 38.9533 29.2688 39.3037C29.3778 39.5308 29.5232 39.7385 29.6524 39.9547L29.6975 39.9338C29.7031 39.8758 29.7121 39.8182 29.7246 39.7615C29.7774 39.5716 29.8113 39.3704 29.8949 39.1969C30.0912 38.7892 30.4862 38.7199 30.7875 39.0505C30.9337 39.2107 31.0398 39.4202 31.1347 39.6228C31.3541 40.0916 31.4348 40.6056 31.5304 41.1129C31.5437 41.1834 31.5587 41.2534 31.5729 41.3237L31.6166 41.3362C31.6538 41.2735 31.6958 41.2124 31.7278 41.148C31.9336 40.7367 32.1389 40.3285 32.3401 39.9175C32.4618 39.6684 32.6648 39.6172 32.9014 39.6496C32.9726 39.6592 33.0398 39.696 33.1109 39.7205C33.2329 39.2793 33.4891 38.9292 33.7851 38.6123C34.0076 38.3732 34.2161 38.4071 34.3879 38.6913C34.4308 38.762 34.4609 38.8416 34.4955 38.9177C34.5164 38.9642 34.535 39.0118 34.5681 39.0905C34.6549 38.8717 34.7368 38.6932 34.798 38.505C34.8791 38.2559 34.943 38.0008 35.0156 37.7489C35.1384 37.3261 35.2318 36.8903 35.4787 36.5206C35.6029 36.3345 35.8188 36.3262 35.9586 36.5012C36.0143 36.5753 36.0638 36.6544 36.1066 36.7375C36.1721 36.8562 36.2318 36.9783 36.2991 37.1086C36.3238 37.077 36.3398 37.0593 36.3531 37.0392C36.8855 36.2339 37.184 35.3455 37.1945 34.3581C37.2024 33.5805 37.2103 32.802 37.1848 32.0252C37.1701 31.584 37.2914 31.2295 37.5516 30.8891C37.9363 30.3858 38.2976 29.861 38.6452 29.3282C38.7761 29.1277 38.8691 28.8872 38.9306 28.6509C39.045 28.2118 38.8998 27.9222 38.4982 27.7614C38.3528 27.7031 38.1868 27.6878 38.0291 27.6813C37.7387 27.6681 37.4471 27.678 37.1583 27.678Z" fill="#16161A"/>
<path d="M33.836 28.5317C34.5733 28.5474 35.0305 27.9801 34.8845 27.2626C34.8376 27.0326 34.7179 26.9281 34.5104 26.999C34.1806 27.1117 33.8613 27.258 33.5428 27.4015C33.469 27.4347 33.4044 27.506 33.3523 27.5748C33.1883 27.7908 33.1941 28.039 33.2732 28.2822C33.3446 28.4993 33.5379 28.5093 33.7189 28.5239C33.7664 28.5277 33.8135 28.5302 33.836 28.5317ZM29.0651 28.5317C29.1164 28.5273 29.2155 28.5237 29.313 28.5089C29.4687 28.485 29.586 28.4043 29.6335 28.2371C29.7324 27.8835 29.6371 27.5617 29.3265 27.3942C29.0274 27.2327 28.7067 27.1106 28.3862 27.0017C28.1674 26.927 28.0356 27.0422 27.9982 27.2831C27.8839 28.0158 28.3146 28.544 29.0651 28.5313V28.5317Z" fill="#F44163"/>
</g>
<defs>
<linearGradient id="paint0_linear" x1="31" y1="0" x2="31" y2="62" gradientUnits="userSpaceOnUse">
<stop stop-color="#EF4565"/>
<stop offset="1" stop-color="#FF345A"/>
</linearGradient>
<clipPath id="clip0">
<rect width="14.9587" height="18.6984" fill="white" transform="translate(24.0127 22.6348)"/>
</clipPath>
</defs>
</svg>
