<svg width="48" height="64" viewBox="0 0 48 64" fill="none" xmlns="http://www.w3.org/2000/svg">
<path d="M38.7693 52.3075H48V28.3075C48 25.2537 45.5155 22.769 42.4615 22.769H5.53851C2.48451 22.769 0 25.2535 0 28.3075V52.3075H9.23075C10.2504 52.3075 11.0769 53.1342 11.0769 54.1537C11.0769 55.1732 10.2504 55.9998 9.23075 55.9998H0V58.4613C0 61.5153 2.48451 63.9998 5.53851 63.9998H42.4616C45.5155 63.9998 48 61.5153 48 58.4613V55.9998H38.7693C37.7496 55.9998 36.9231 55.1732 36.9231 54.1537C36.9231 53.1342 37.7495 52.3075 38.7693 52.3075ZM2.4615 41.0767C2.4615 41.9299 2.2025 42.7238 1.75963 43.3844C2.20263 44.0449 2.4615 44.8388 2.4615 45.6922V46.846C2.4615 49.1365 21.5 57 23 58L21 54.1537L24.4372 55.9998C24.4372 57.0194 25.0195 54.4614 24 54.4614C22.9805 54.4614 22.1539 53.6348 22.1539 52.6153V50.9998H19.3846C18.365 50.9998 17.5385 50.1732 17.5385 49.1537V43.3844V37.6152C17.5385 36.5955 18.3651 35.769 19.3846 35.769H22.1539V34.1537C22.1539 33.134 22.9805 32.3075 24 32.3075C25.0195 32.3075 25.8461 33.1342 25.8461 34.1537V35.769L29 33.5C31.2905 33.5 21.5 25.5 2.4615 39.9229V41.0767Z" fill="url(#paint0_linear)"/>
<g clip-path="url(#clip0)">
<path d="M31.5758 37.7423C31.4504 36.7898 31.2269 35.8938 30.7757 35.0884C29.4611 32.7405 27.498 31.4126 24.9487 31.0737C23.5024 30.8817 22.0879 31.0654 20.7516 31.7089C18.6959 32.6989 17.2417 34.2695 16.6169 36.6109C16.5082 37.0194 16.4387 37.4396 16.3493 37.8631C16.308 37.853 16.2649 37.846 16.2241 37.8318C15.789 37.6791 15.3449 37.6674 14.8971 37.7437C14.3909 37.8298 13.9336 38.361 14.0031 38.8299C14.0468 39.1256 14.1528 39.4183 14.2724 39.6923C14.3689 39.9129 14.5223 40.1075 14.6596 40.3074C15.1201 40.975 15.5878 41.637 16.0464 42.306C16.226 42.5677 16.3704 42.854 16.3638 43.1881C16.3545 43.7671 16.3728 44.3516 16.3016 44.9234C16.203 45.7151 16.2633 46.4962 16.3577 47.274C16.4683 48.1857 16.8714 48.9945 17.2676 49.7988C17.2824 49.8283 17.2995 49.8563 17.3189 49.8826C17.4263 50.0311 17.4721 50.0255 17.5591 49.8656C17.6247 49.7448 17.686 49.6176 17.7707 49.5131C17.9143 49.3364 18.0971 49.3285 18.241 49.5041C18.366 49.6522 18.4707 49.8182 18.5518 49.9973C18.6874 50.3118 18.788 50.6428 18.9131 50.9626C19.0009 51.1813 19.1032 51.3937 19.209 51.6369C19.3474 51.5151 19.4571 51.4074 19.5775 51.3152C19.8155 51.132 20.0494 51.1829 20.2001 51.448C20.2754 51.5789 20.3439 51.714 20.4054 51.8528C20.6138 52.33 20.8021 52.8176 21.0275 53.2861C21.1732 53.5897 21.3676 53.8674 21.5404 54.1564L21.6007 54.1285C21.6081 54.051 21.6202 53.974 21.6369 53.8981C21.7075 53.6443 21.7527 53.3753 21.8646 53.1433C22.127 52.5981 22.6552 52.5056 23.0581 52.9476C23.2535 53.1617 23.3953 53.4419 23.5223 53.7128C23.8156 54.3396 23.9235 55.0267 24.0513 55.705C24.069 55.7992 24.0891 55.8928 24.1081 55.9868L24.1666 56.0036C24.2163 55.9197 24.2724 55.838 24.3152 55.7519C24.5903 55.202 24.8649 54.6563 25.1339 54.1067C25.2965 53.7737 25.5679 53.7052 25.8843 53.7485C25.9795 53.7614 26.0694 53.8106 26.1644 53.8433C26.3276 53.2534 26.6701 52.7854 27.0658 52.3616C27.3634 52.042 27.6421 52.0873 27.8717 52.4673C27.9291 52.5618 27.9693 52.6683 28.0156 52.77C28.0436 52.8321 28.0685 52.8959 28.1127 53.001C28.2288 52.7085 28.3383 52.4698 28.42 52.2182C28.5285 51.8852 28.6139 51.5441 28.711 51.2073C28.8752 50.642 29.0001 50.0593 29.3302 49.5651C29.4963 49.3162 29.7849 49.3051 29.9719 49.5391C30.0462 49.6382 30.1124 49.7439 30.1697 49.855C30.2573 50.0138 30.3371 50.177 30.4271 50.3512C30.4601 50.309 30.4816 50.2852 30.4993 50.2584C31.2111 49.1818 31.6102 47.9939 31.6242 46.6737C31.6348 45.634 31.6454 44.5932 31.6112 43.5546C31.5917 42.9647 31.7538 42.4908 32.1016 42.0357C32.6161 41.3628 33.0991 40.661 33.5638 39.9487C33.7389 39.6806 33.8632 39.3591 33.9455 39.0432C34.0983 38.4561 33.9042 38.0689 33.3673 37.8539C33.1729 37.7759 32.9509 37.7555 32.7401 37.7468C32.3518 37.7292 31.962 37.7423 31.5758 37.7423Z" fill="#16161A"/>
<path d="M27.1343 38.8847C28.1201 38.9057 28.7313 38.1472 28.5361 37.188C28.4735 36.8805 28.3134 36.7407 28.036 36.8354C27.595 36.9861 27.1681 37.1818 26.7423 37.3736C26.6436 37.4181 26.5571 37.5134 26.4876 37.6054C26.2683 37.8942 26.276 38.226 26.3818 38.5512C26.4773 38.8414 26.7357 38.8548 26.9777 38.8744C27.0412 38.8794 27.1041 38.8827 27.1343 38.8847ZM20.7556 38.8847C20.8241 38.8788 20.9566 38.8741 21.087 38.8542C21.2951 38.8224 21.452 38.7144 21.5155 38.4908C21.6477 38.018 21.5202 37.5878 21.105 37.3638C20.705 37.148 20.2763 36.9847 19.8478 36.8391C19.5553 36.7393 19.3791 36.8933 19.3291 37.2154C19.1762 38.195 19.752 38.9012 20.7556 38.8841V38.8847Z" fill="#F44163"/>
</g>
<path d="M24.0001 0C14.8384 0 7.38477 7.45363 7.38477 16.6154V19.0769H18.4616V16.6149C18.4616 13.561 20.9461 11.0764 24.0001 11.0764C27.0541 11.0764 29.5386 13.5609 29.5386 16.6149V19.0769H40.6155V16.6154C40.6155 7.45363 33.1619 0 24.0001 0Z" fill="url(#paint1_linear)"/>
<defs>
<linearGradient id="paint0_linear" x1="24" y1="22.769" x2="24" y2="63.9998" gradientUnits="userSpaceOnUse">
<stop stop-color="#EF4565"/>
<stop offset="1" stop-color="#FF345A"/>
</linearGradient>
<linearGradient id="paint1_linear" x1="24.0001" y1="0" x2="24.0001" y2="19.0769" gradientUnits="userSpaceOnUse">
<stop stop-color="#EF4565"/>
<stop offset="1" stop-color="#FF345A"/>
</linearGradient>
<clipPath id="clip0">
<rect width="20" height="25" fill="white" transform="translate(14 31)"/>
</clipPath>
</defs>
</svg>
