<svg width="63" height="63" viewBox="0 0 63 63" fill="none" xmlns="http://www.w3.org/2000/svg">
<path d="M48.9403 27.6699L50.9995 25.4738C51.6861 24.7416 51.649 23.5915 50.9168 22.9051C50.1848 22.2185 49.0347 22.2555 48.3481 22.9877L46.9469 24.482V17.8702C46.9469 16.8665 46.1332 16.0529 45.1297 16.0529H35.6484C34.7351 7.0496 27.1104 0 17.8702 0C8.0165 0 0 8.0165 0 17.8702C0 26.3194 5.89444 33.4173 13.7869 35.2692L11.4739 37.4459C10.743 38.1337 10.7079 39.2838 11.3957 40.0147C12.0836 40.7457 13.2338 40.7808 13.9646 40.0929L16.0529 38.1278V45.13C16.0529 46.1337 16.8666 46.9473 17.8702 46.9473H27.3515C28.2649 55.9504 35.8896 63 45.1298 63C54.9835 63 63 54.9835 63 45.1298C63 36.5837 56.9694 29.4208 48.9403 27.6699ZM17.8702 28.774C16.8665 28.774 16.0529 27.9603 16.0529 26.9567V25.3666H13.327C12.3233 25.3666 11.5097 24.5529 11.5097 23.5493V29.1911C11.5097 28.1874 12.3234 27.3738 13.327 27.3738H16.0529V25.7837C16.0529 24.78 14.9964 30 16 30C17.0036 30 19.6875 29.1483 19.6875 30.152V27.3738H20.1418C22.3965 27.3738 24.2308 29.2081 24.2308 31.4628V32.5987C24.2308 33.4386 27.436 18.3497 27 19C27.4361 19.6502 24.2308 19.302 24.2308 20.142V21.2779C24.2308 23.5326 22.3965 25.3669 20.1418 25.3669H19.6875V26.957C19.6875 27.9603 18.8738 28.774 17.8702 28.774ZM27.3515 43.3125H19.6875V38.519L21.0878 40.0123C21.4456 40.3938 21.9289 40.5865 22.4138 40.5865C22.8593 40.5865 23.3059 40.4237 23.6565 40.0948C24.3886 39.4082 24.4255 38.2582 23.7392 37.5261L21.6801 35.3302C29.1332 33.7052 34.8645 27.4171 35.6486 19.6874H43.3125V24.8713L41.2251 22.9071C40.4942 22.2193 39.3441 22.2543 38.6563 22.9853C37.9685 23.7162 38.0034 24.8663 38.7344 25.5541L41.0472 27.7306C33.7274 29.4478 28.1261 35.6774 27.3515 43.3125ZM49.673 43.3125C50.6767 43.3125 51.4903 44.1262 51.4903 45.1298V47.78C51.4903 50.3504 49.4785 52.4587 46.9471 52.6157V54.2163C46.9471 55.22 46.1334 56.0336 45.1298 56.0336C44.1262 56.0336 43.3125 55.22 43.3125 54.2163V52.6262H40.5865C39.5828 52.6262 38.7692 51.8125 38.7692 50.8089C38.7692 49.8053 39.583 48.9916 40.5865 48.9916H46.6442C47.3123 48.9916 47.8558 48.4481 47.8558 47.7801V46.9472H40.5865C39.5828 46.9472 38.7692 46.1335 38.7692 45.1299V42.4797C38.7692 39.9093 40.7811 37.801 43.3125 37.644V36.0434C43.3125 35.0397 44.1262 34.2261 45.1298 34.2261C46.1334 34.2261 46.9471 35.0398 46.9471 36.0434V37.6335H49.673C50.6767 37.6335 51.4903 38.4472 51.4903 39.4508C51.4903 40.4545 50.6766 41.2681 49.673 41.2681H43.6153C42.9473 41.2681 42.4038 41.8116 42.4038 42.4796V43.3125H49.673Z" fill="url(#paint0_linear)"/>
<g clip-path="url(#clip0)">
<path d="M24.8188 13.9334C24.706 13.0952 24.5048 12.3067 24.0987 11.5979C22.9156 9.53185 21.1488 8.36325 18.8544 8.06507C17.5528 7.89606 16.2797 8.05769 15.077 8.62404C13.2269 9.4952 11.9181 10.8773 11.3558 12.9378C11.258 13.2972 11.1954 13.667 11.1149 14.0397C11.0778 14.0308 11.039 14.0247 11.0023 14.0122C10.6107 13.8778 10.211 13.8675 9.80801 13.9347C9.35238 14.0104 8.94079 14.4779 9.0034 14.8904C9.04268 15.1507 9.13814 15.4083 9.24574 15.6494C9.33262 15.8435 9.47069 16.0148 9.59424 16.1907C10.0087 16.7782 10.4296 17.3607 10.8423 17.9495C11.004 18.1798 11.134 18.4317 11.128 18.7257C11.1197 19.2352 11.1361 19.7496 11.0721 20.2527C10.9833 20.9495 11.0375 21.6368 11.1225 22.3213C11.222 23.1236 11.5848 23.8353 11.9414 24.5431C11.9547 24.569 11.9702 24.5937 11.9876 24.6169C12.0843 24.7475 12.1254 24.7426 12.2038 24.6019C12.2628 24.4956 12.318 24.3837 12.3942 24.2917C12.5235 24.1362 12.688 24.1293 12.8175 24.2838C12.93 24.4141 13.0242 24.5602 13.0972 24.7178C13.2193 24.9945 13.3097 25.2858 13.4223 25.5673C13.5014 25.7597 13.5935 25.9467 13.6887 26.1607C13.8132 26.0534 13.912 25.9587 14.0203 25.8775C14.2346 25.7164 14.445 25.7612 14.5807 25.9944C14.6484 26.1096 14.7101 26.2285 14.7654 26.3506C14.953 26.7706 15.1225 27.1996 15.3253 27.612C15.4565 27.8792 15.6315 28.1235 15.7869 28.3778L15.8412 28.3532C15.8479 28.285 15.8588 28.2173 15.8738 28.1505C15.9374 27.9271 15.9781 27.6905 16.0788 27.4863C16.3149 27.0065 16.7903 26.9251 17.1528 27.314C17.3288 27.5025 17.4564 27.749 17.5706 27.9874C17.8346 28.539 17.9317 29.1437 18.0467 29.7406C18.0627 29.8235 18.0808 29.9059 18.0979 29.9885L18.1505 30.0033C18.1953 29.9295 18.2457 29.8577 18.2843 29.7819C18.5319 29.298 18.779 28.8177 19.0211 28.334C19.1675 28.041 19.4117 27.9808 19.6964 28.0189C19.7821 28.0302 19.8631 28.0735 19.9485 28.1023C20.0954 27.5832 20.4037 27.1713 20.7598 26.7984C21.0276 26.5172 21.2785 26.557 21.4851 26.8914C21.5368 26.9745 21.573 27.0683 21.6146 27.1578C21.6399 27.2124 21.6622 27.2685 21.702 27.361C21.8065 27.1037 21.9051 26.8936 21.9786 26.6722C22.0762 26.3792 22.1531 26.079 22.2405 25.7826C22.3883 25.2851 22.5007 24.7724 22.7977 24.3374C22.9472 24.1185 23.207 24.1086 23.3753 24.3145C23.4422 24.4018 23.5018 24.4948 23.5533 24.5926C23.6321 24.7323 23.704 24.876 23.7849 25.0292C23.8147 24.9921 23.834 24.9712 23.8499 24.9476C24.4905 24.0001 24.8497 22.9548 24.8624 21.7931C24.8719 20.8781 24.8814 19.9622 24.8507 19.0482C24.8331 18.5291 24.979 18.1121 25.292 17.7116C25.7551 17.1194 26.1897 16.5019 26.608 15.875C26.7656 15.6391 26.8775 15.3562 26.9515 15.0782C27.0891 14.5615 26.9144 14.2208 26.4311 14.0316C26.2562 13.9629 26.0564 13.945 25.8667 13.9374C25.5172 13.9219 25.1664 13.9334 24.8188 13.9334Z" fill="#16161A"/>
<path d="M20.8206 14.938C21.7078 14.9565 22.2579 14.289 22.0822 13.4449C22.0258 13.1743 21.8818 13.0513 21.6321 13.1347C21.2352 13.2673 20.851 13.4395 20.4678 13.6083C20.379 13.6474 20.3011 13.7313 20.2385 13.8122C20.0412 14.0664 20.0481 14.3584 20.1433 14.6445C20.2292 14.8999 20.4618 14.9117 20.6796 14.9289C20.7368 14.9333 20.7934 14.9363 20.8206 14.938ZM15.0797 14.938C15.1414 14.9328 15.2606 14.9287 15.378 14.9112C15.5653 14.8831 15.7065 14.7882 15.7636 14.5914C15.8827 14.1753 15.7679 13.7967 15.3942 13.5997C15.0342 13.4097 14.6484 13.266 14.2627 13.1379C13.9994 13.05 13.8409 13.1856 13.7959 13.469C13.6583 14.3311 14.1765 14.9525 15.0797 14.9375V14.938Z" fill="#F44163"/>
</g>
<defs>
<linearGradient id="paint0_linear" x1="31.5" y1="0" x2="31.5" y2="63" gradientUnits="userSpaceOnUse">
<stop stop-color="#EF4565"/>
<stop offset="1" stop-color="#FF345A"/>
</linearGradient>
<clipPath id="clip0">
<rect width="18" height="22" fill="white" transform="translate(9 8)"/>
</clipPath>
</defs>
</svg>
