<svg width="61" height="61" viewBox="0 0 61 61" fill="none" xmlns="http://www.w3.org/2000/svg">
<path d="M59.2404 18.1826C60.2122 18.1826 61 17.3948 61 16.4231V13.6299C61 11.1055 59.7197 8.87479 57.7746 7.55185C58.2682 6.78708 58.5562 5.87768 58.5562 4.90168C58.5561 2.19898 56.3572 0 53.6543 0C50.9514 0 48.7526 2.19898 48.7526 4.9018C48.7526 5.8778 49.0404 6.7872 49.5341 7.55185C47.5891 8.87467 46.3087 11.1055 46.3087 13.6299V15.4784L41.2188 18.8532C38.3964 16.2536 34.6307 14.6634 30.5001 14.6634C26.3695 14.6634 22.6038 16.2535 19.7814 18.8533L14.6916 15.4785V13.6299C14.6916 11.1055 13.4113 8.87479 11.4662 7.55185C11.9598 6.78708 12.2478 5.87768 12.2478 4.90168C12.2475 2.19898 10.0486 0 7.34573 0C4.64291 0 2.44393 2.19898 2.44393 4.9018C2.44393 5.8778 2.73178 6.7872 3.22549 7.55197C1.28029 8.87479 0 11.1056 0 13.6299V16.4231C0 17.3949 0.787877 18.1826 1.75959 18.1826H12.4013L17.4541 21.533C15.6951 24.084 14.6634 27.1736 14.6634 30.5C14.6634 33.8264 15.6951 36.916 17.4541 39.467L11.9593 43.1103L10.5698 44.0316C9.70722 43.2765 8.57944 42.8172 7.34561 42.8172C4.64267 42.8172 2.44381 45.0162 2.44381 47.719C2.44381 48.695 2.73166 49.6044 3.22538 50.3692C1.28029 51.6921 0 53.9228 0 56.4473V59.2404C0 60.2121 0.787877 61 1.75959 61H12.9318C13.9036 61 14.6913 60.2121 14.6913 59.2404V56.4473C14.6913 53.9228 13.4111 51.6921 11.466 50.3692C11.9596 49.6044 12.2475 48.695 12.2475 47.719C12.2475 47.5312 12.2359 47.3459 12.2151 47.1634L19.7814 42.1466C22.6037 44.7464 26.3694 46.3367 30.5 46.3367C34.6306 46.3367 38.3963 44.7465 41.2187 42.1467L48.785 47.1635C48.7643 47.346 48.7526 47.5313 48.7526 47.7192C48.7526 48.6952 49.0404 49.6046 49.5341 50.3692C47.5891 51.692 46.3087 53.9228 46.3087 56.4473V59.2404C46.3087 60.2122 47.0965 61 48.0682 61H59.2404C60.2122 61 61 60.2121 61 59.2404V56.4473C61 53.9228 59.7197 51.6921 57.7746 50.3692C58.2682 49.6044 58.5562 48.695 58.5562 47.719C58.5562 45.0161 56.3572 42.8172 53.6544 42.8172C52.4207 42.8172 51.2928 43.2765 50.4302 44.0316L49.0407 43.1103L43.5459 39.4671C45.3049 36.916 46.3367 33.8265 46.3367 30.5001C46.3367 27.1737 45.3049 24.0843 43.5459 21.5331L48.5987 18.1828L59.2404 18.1826ZM29.5611 40.5C29.5611 41.3133 35.9221 42.8703 35.5 43.5C35.9224 44.1295 41.5 31.6866 41.5 32.5L36.6586 33.7994C36.6586 35.9824 34.8825 37.7585 32.6995 37.7585H32.2596V39.2982C32.2596 40.27 31.4717 41.0578 30.5 41.0578C29.5283 41.0578 28.7404 40.2699 28.7404 39.2982V37.7585L30.5 30C29.5282 30 31.5 29.9717 31.5 29L24.3414 25.0013C24.3414 24.0295 25.1293 23.2417 26.101 23.2417H28.7404V21.7021C28.7404 20.7302 29.0283 42.1466 30 42.1466C30.9717 42.1466 32.2596 20.7304 32.2596 21.7021L19 24.5L29 42.5C31.183 42.5 29 38.0354 29 40.2184L29.5611 40.5Z" fill="url(#paint0_linear)"/>
<g clip-path="url(#clip0)">
<path d="M35.4239 27.3156C35.3424 26.706 35.1971 26.1326 34.9038 25.6171C34.0493 24.1145 32.7733 23.2646 31.1163 23.0477C30.1762 22.9248 29.2567 23.0424 28.3882 23.4542C27.0519 24.0878 26.1067 25.093 25.7006 26.5915C25.63 26.8529 25.5847 27.1218 25.5266 27.3929C25.4998 27.3865 25.4718 27.382 25.4453 27.3729C25.1625 27.2752 24.8738 27.2677 24.5828 27.3165C24.2537 27.3716 23.9564 27.7116 24.0016 28.0116C24.03 28.2009 24.099 28.3883 24.1767 28.5636C24.2394 28.7048 24.3391 28.8293 24.4284 28.9573C24.7277 29.3845 25.0316 29.8082 25.3298 30.2364C25.4465 30.4039 25.5404 30.5871 25.5361 30.8009C25.5301 31.1714 25.5419 31.5456 25.4957 31.9115C25.4315 32.4182 25.4707 32.9181 25.5321 33.4159C25.604 33.9993 25.866 34.517 26.1236 35.0317C26.1331 35.0506 26.1443 35.0686 26.1569 35.0854C26.2267 35.1804 26.2564 35.1769 26.313 35.0745C26.3556 34.9972 26.3955 34.9158 26.4506 34.8489C26.5439 34.7358 26.6627 34.7308 26.7562 34.8432C26.8375 34.9379 26.9055 35.0442 26.9582 35.1588C27.0464 35.3601 27.1118 35.5719 27.1931 35.7766C27.2502 35.9165 27.3167 36.0525 27.3855 36.2082C27.4754 36.1302 27.5468 36.0613 27.625 36.0022C27.7797 35.885 27.9317 35.9176 28.0297 36.0872C28.0786 36.171 28.1231 36.2575 28.1631 36.3463C28.2986 36.6517 28.421 36.9638 28.5675 37.2637C28.6622 37.458 28.7886 37.6356 28.9008 37.8206L28.94 37.8028C28.9449 37.7531 28.9528 37.7039 28.9636 37.6553C29.0095 37.4929 29.0389 37.3207 29.1116 37.1722C29.2822 36.8233 29.6255 36.7641 29.8874 37.047C30.0144 37.184 30.1066 37.3633 30.1891 37.5367C30.3797 37.9378 30.4499 38.3776 30.5329 38.8117C30.5445 38.872 30.5575 38.9319 30.5699 38.9921L30.6079 39.0028C30.6402 38.9491 30.6767 38.8969 30.7045 38.8418C30.8833 38.4898 31.0618 38.1406 31.2366 37.7888C31.3424 37.5757 31.5188 37.5319 31.7244 37.5596C31.7863 37.5678 31.8447 37.5993 31.9064 37.6202C32.0125 37.2427 32.2352 36.9432 32.4924 36.6719C32.6858 36.4674 32.867 36.4964 33.0162 36.7396C33.0535 36.8001 33.0797 36.8682 33.1098 36.9334C33.128 36.9731 33.1441 37.0139 33.1729 37.0811C33.2483 36.894 33.3195 36.7412 33.3726 36.5802C33.4431 36.3671 33.4987 36.1488 33.5617 35.9332C33.6685 35.5714 33.7497 35.1985 33.9642 34.8822C34.0722 34.7229 34.2598 34.7158 34.3813 34.8655C34.4297 34.929 34.4727 34.9966 34.5099 35.0677C34.5668 35.1693 34.6187 35.2738 34.6772 35.3853C34.6987 35.3583 34.7126 35.3431 34.7241 35.3259C35.1868 34.6369 35.4462 33.8766 35.4553 33.0317C35.4622 32.3663 35.4691 31.7002 35.4469 31.0355C35.4342 30.6579 35.5396 30.3547 35.7657 30.0634C36.1001 29.6327 36.414 29.1836 36.7161 28.7277C36.8299 28.5561 36.9107 28.3503 36.9642 28.1482C37.0635 27.7724 36.9373 27.5246 36.5883 27.387C36.462 27.3371 36.3177 27.324 36.1807 27.3185C35.9283 27.3072 35.6749 27.3156 35.4239 27.3156Z" fill="#16161A"/>
<path d="M32.537 28.0461C33.1778 28.0595 33.5751 27.5741 33.4482 26.9602C33.4075 26.7634 33.3034 26.6739 33.1231 26.7346C32.8365 26.831 32.559 26.9563 32.2822 27.079C32.2181 27.1075 32.1618 27.1685 32.1166 27.2273C31.9741 27.4122 31.9791 27.6245 32.0479 27.8326C32.1099 28.0184 32.2779 28.0269 32.4352 28.0395C32.4765 28.0427 32.5174 28.0448 32.537 28.0461ZM28.3908 28.0461C28.4353 28.0423 28.5215 28.0393 28.6062 28.0266C28.7416 28.0062 28.8435 27.9371 28.8848 27.794C28.9707 27.4914 28.8879 27.2161 28.6179 27.0727C28.358 26.9346 28.0793 26.8301 27.8008 26.7369C27.6106 26.673 27.4961 26.7716 27.4636 26.9777C27.3643 27.6047 27.7385 28.0566 28.3908 28.0457V28.0461Z" fill="#F44163"/>
</g>
<defs>
<linearGradient id="paint0_linear" x1="30.5" y1="0" x2="30.5" y2="61" gradientUnits="userSpaceOnUse">
<stop stop-color="#EF4565"/>
<stop offset="1" stop-color="#FF345A"/>
</linearGradient>
<clipPath id="clip0">
<rect width="13" height="16" fill="white" transform="translate(24 23)"/>
</clipPath>
</defs>
</svg>
