<svg width="25" height="28" viewBox="0 0 25 28" fill="none" xmlns="http://www.w3.org/2000/svg">
<path d="M24.2247 27H17.8373C17.2853 26.4743 16.6282 25.8171 15.8659 25.0286C13.7105 26.6583 11.3185 27.4731 8.68988 27.4731C6.16645 27.4731 4.08988 26.816 2.46017 25.5017C0.830452 24.1874 0.0155949 22.308 0.0155949 19.8634C0.0155949 18.0497 0.515024 16.5514 1.51388 15.3686C2.53902 14.1857 3.91902 13.1606 5.65388 12.2931C4.49731 10.1114 3.91902 8.21886 3.91902 6.61543C3.91902 4.828 4.62874 3.32971 6.04817 2.12057C7.46759 0.911428 9.26817 0.306856 11.4499 0.306856C13.395 0.306856 15.0247 0.819428 16.339 1.84457C17.6796 2.84343 18.3499 4.184 18.3499 5.86629C18.3499 6.81257 18.179 7.66686 17.8373 8.42914C17.4956 9.19143 16.9699 9.86171 16.2602 10.44C15.5767 11.0183 14.9196 11.4914 14.2887 11.8594C13.6842 12.2011 12.8825 12.6086 11.8836 13.0817C12.4619 13.844 13.2242 14.7903 14.1705 15.9206C14.4596 16.2886 14.867 16.788 15.3927 17.4189C15.9185 18.0497 16.247 18.444 16.3785 18.6017C17.4299 16.972 18.2316 15.2766 18.7836 13.5154L22.8053 15.3686C21.7013 17.7869 20.479 19.9029 19.1385 21.7166C20.8996 23.6091 22.595 25.3703 24.2247 27ZM9.3996 23.5303C10.6876 23.5303 11.9493 23.0834 13.1847 22.1897C11.8705 20.744 10.8979 19.6269 10.267 18.8383C9.34702 17.708 8.46645 16.5514 7.62531 15.3686C6.10074 16.4463 5.33845 17.7869 5.33845 19.3903C5.33845 20.6257 5.73274 21.6246 6.52131 22.3869C7.30988 23.1491 8.26931 23.5303 9.3996 23.5303ZM8.92645 6.73372C8.92645 7.65371 9.30759 8.83657 10.0699 10.2823C11.3579 9.67771 12.3305 9.06 12.9876 8.42914C13.671 7.79829 14.0127 7.036 14.0127 6.14228C14.0127 5.45886 13.7893 4.92 13.3425 4.52571C12.8956 4.13143 12.3436 3.93429 11.6865 3.93429C10.8979 3.93429 10.2407 4.21029 9.71502 4.76229C9.18931 5.288 8.92645 5.94514 8.92645 6.73372Z" fill="#72757E"/>
</svg>
