<svg width="48" height="48" viewBox="0 0 48 48" fill="none" xmlns="http://www.w3.org/2000/svg">
<rect opacity="0.1" width="48" height="48" rx="5" fill="#EF4565"/>
<path d="M37.5458 22.8547H34.4773C34.1527 17.3372 29.5794 13 24.003 13C22.2032 13 20.4329 13.4721 18.8986 14.3277L18.338 14.6523C18.102 14.7998 18.0135 15.0949 18.161 15.3309L19.0461 16.6881C19.1937 16.8947 19.4592 16.9832 19.6953 16.8357L20.1673 16.5701C21.3475 15.921 22.6753 15.5669 24.003 15.5669C28.1632 15.5669 31.5563 18.7535 31.8808 22.8252H28.9008C28.5173 22.8252 28.2812 23.2383 28.4878 23.5628L32.7955 30.2015C32.9725 30.4965 33.4151 30.4965 33.5921 30.2015L37.8999 23.5628C38.1359 23.2678 37.9294 22.8547 37.5458 22.8547Z" fill="#EF4565"/>
<path d="M28.9598 30.3198C28.8123 30.1132 28.5467 30.0247 28.3107 30.1722L27.8386 30.4378C26.6289 31.0869 25.3602 31.441 24.0029 31.441C19.8427 31.441 16.4496 28.2249 16.0956 24.1827H19.0756C19.4592 24.1827 19.6952 23.7697 19.4887 23.4451L15.1809 16.777C15.0039 16.4819 14.5613 16.4819 14.3843 16.777L10.0766 23.4156C9.87002 23.7401 10.1061 24.1532 10.4896 24.1532H13.5286C13.8532 29.6412 18.4265 34.0079 24.0029 34.0079C25.7732 34.0079 27.5436 33.5358 29.1073 32.6802L29.6679 32.3556C29.904 32.2081 29.9925 31.913 29.8449 31.677L28.9598 30.3198Z" fill="#EF4565"/>
</svg>
