<svg width="48" height="48" viewBox="0 0 48 48" fill="none" xmlns="http://www.w3.org/2000/svg">
<rect opacity="0.1" width="48" height="48" rx="5" fill="#EF4565"/>
<g clip-path="url(#clip0)">
<path fill-rule="evenodd" clip-rule="evenodd" d="M31.0902 16.3321C31.5622 17.1252 31.796 18.0074 31.9272 18.9453C32.0479 18.9453 32.169 18.9441 32.2903 18.943C32.5749 18.9402 32.8605 18.9375 33.1453 18.9497C33.3658 18.9582 33.598 18.9783 33.8014 19.0551C34.3631 19.2668 34.5662 19.648 34.4062 20.2261C34.3202 20.5371 34.1901 20.8537 34.0069 21.1177C33.5208 21.8191 33.0155 22.51 32.4773 23.1726C32.1134 23.6207 31.9438 24.0873 31.9643 24.6681C32 25.6907 31.9889 26.7156 31.9778 27.7393C31.9632 29.0391 31.5456 30.2087 30.801 31.2688C30.7889 31.286 30.7752 31.3019 30.7576 31.3224C30.7481 31.3334 30.7375 31.3457 30.7255 31.3602C30.6961 31.3067 30.6678 31.2542 30.6399 31.2026C30.5785 31.0888 30.5192 30.9791 30.4562 30.8716C30.3963 30.7622 30.3271 30.6581 30.2492 30.5605C30.0536 30.3301 29.7517 30.3411 29.5779 30.5861C29.2883 30.9942 29.1498 31.4635 29.0112 31.9326C28.9846 32.0229 28.9579 32.1132 28.9302 32.203C28.896 32.3146 28.8632 32.4266 28.8305 32.5386C28.7658 32.7597 28.7011 32.9808 28.6258 33.1984C28.5677 33.3667 28.4962 33.5292 28.4182 33.7064C28.3814 33.79 28.3432 33.8768 28.3043 33.9692C28.2873 33.9311 28.273 33.8986 28.2603 33.8696C28.2385 33.8197 28.2213 33.7804 28.2027 33.7418C28.1898 33.7151 28.1773 33.688 28.1649 33.661C28.1306 33.5865 28.0962 33.5119 28.0522 33.4437C27.812 33.0696 27.5203 33.025 27.209 33.3396C26.7951 33.7569 26.4367 34.2177 26.266 34.7985C26.2337 34.7881 26.202 34.7759 26.1704 34.7638C26.1049 34.7386 26.0402 34.7138 25.973 34.7052C25.642 34.6626 25.3581 34.73 25.188 35.0579C24.9552 35.5055 24.7185 35.9505 24.4807 36.3973C24.431 36.4907 24.3813 36.5842 24.3315 36.6778C24.3013 36.735 24.2648 36.7901 24.2283 36.8453C24.2106 36.872 24.193 36.8986 24.176 36.9256L24.1149 36.909C24.1087 36.8805 24.1025 36.8519 24.0962 36.8234C24.0822 36.7595 24.0682 36.6957 24.0554 36.6316C24.0422 36.5657 24.0292 36.4998 24.0163 36.4339C23.8976 35.831 23.7786 35.2263 23.502 34.67C23.3691 34.4033 23.2208 34.1274 23.0163 33.9166C22.5949 33.4814 22.0423 33.5725 21.7678 34.1093C21.6833 34.2743 21.6351 34.4583 21.587 34.642C21.5686 34.7126 21.5501 34.7831 21.5296 34.8525C21.5122 34.9272 21.4995 35.003 21.4917 35.0793L21.4286 35.1068C21.373 35.0193 21.3152 34.9328 21.2575 34.8462C21.1276 34.6516 20.9976 34.4569 20.8921 34.2499C20.7393 33.951 20.6028 33.6441 20.4662 33.3373C20.3921 33.1706 20.318 33.004 20.2412 32.8386C20.1769 32.702 20.1052 32.569 20.0265 32.44C19.8688 32.1791 19.6242 32.129 19.3751 32.3093C19.2893 32.3712 19.2087 32.4401 19.1202 32.5157C19.0789 32.5511 19.0358 32.5879 18.9897 32.6261C18.9481 32.5361 18.907 32.4504 18.867 32.367C18.8006 32.2285 18.7374 32.0965 18.68 31.9622C18.6263 31.8329 18.5769 31.7018 18.5276 31.5707C18.4566 31.3825 18.3857 31.1942 18.3021 31.0117C18.2172 30.8354 18.1078 30.6719 17.9769 30.5261C17.8264 30.3532 17.6352 30.3609 17.4849 30.5349C17.4122 30.6195 17.3558 30.7192 17.3 30.8181C17.2879 30.8395 17.2758 30.8608 17.2636 30.882C17.1725 31.0395 17.1247 31.045 17.0123 30.8988C16.992 30.8729 16.9741 30.8453 16.9586 30.8162L16.9419 30.7843C16.5328 30.0029 16.1209 29.2159 16.0068 28.3303C15.908 27.5645 15.8449 26.7954 15.9481 26.0158C16.005 25.5854 16.0072 25.1475 16.0095 24.7104C16.0102 24.5759 16.0108 24.4414 16.0131 24.3072C16.02 23.9783 15.869 23.6964 15.6811 23.4388C15.4139 23.072 15.1439 22.7074 14.8738 22.3428C14.6588 22.0525 14.4438 21.7622 14.2303 21.4709C14.2003 21.4297 14.1695 21.3888 14.1387 21.3478C14.0222 21.1928 13.9051 21.037 13.8252 20.8653C13.7001 20.5955 13.5891 20.3073 13.5435 20.0161C13.4707 19.5544 13.9491 19.0314 14.4788 18.9466C14.9472 18.8715 15.4118 18.8831 15.867 19.0334C15.8965 19.0431 15.9271 19.0493 15.9575 19.0556C15.9711 19.0584 15.9846 19.0611 15.9979 19.0642C16.0275 18.9323 16.055 18.8007 16.0824 18.6697C16.1416 18.3866 16.2002 18.1062 16.2779 17.8313C16.9315 15.5259 18.4529 13.9794 20.6034 13.0047C22.0014 12.371 23.4812 12.1902 24.9943 12.3793C27.6612 12.7129 29.7149 14.0204 31.0902 16.3321ZM28.7461 18.4005C28.9503 19.345 28.3108 20.0918 27.2795 20.0711C27.2714 20.0706 27.261 20.0701 27.2489 20.0694C27.214 20.0674 27.165 20.0646 27.1157 20.061C27.1094 20.0605 27.103 20.06 27.0966 20.0595C26.8491 20.0408 26.5897 20.0213 26.4923 19.7427C26.3816 19.4226 26.3736 19.0959 26.603 18.8115C26.6757 18.7209 26.7662 18.6271 26.8694 18.5833C26.8974 18.5715 26.9254 18.5596 26.9533 18.5477C27.3711 18.3705 27.7905 18.1925 28.2228 18.0534C28.5131 17.9601 28.6805 18.0977 28.7461 18.4005ZM20.6743 20.0666C20.648 20.0682 20.6249 20.0696 20.6064 20.0711V20.0706C19.5566 20.0874 18.9542 19.392 19.1141 18.4275C19.1664 18.1104 19.3507 17.9587 19.6567 18.057C20.105 18.2004 20.5536 18.3612 20.9719 18.5737C21.4064 18.7942 21.5397 19.2178 21.4014 19.6833C21.335 19.9035 21.1709 20.0098 20.9531 20.0411C20.852 20.0556 20.7497 20.0619 20.6743 20.0666Z" fill="#EF4565"/>
</g>
<defs>
<clipPath id="clip0">
<rect width="20.9231" height="24.6154" fill="white" transform="translate(13.5381 12.3076)"/>
</clipPath>
</defs>
</svg>
